# xmcd CD database file
#
# Track frame offsets:
#	150
#	11574
#	21662
#	33206
#	44647
#	56201
#	67406
#	78467
#	88695
#	99894
#	110879
#	121155
#	133637
#	146648
#	157667
#	169403
#
# Disc length: 2402 seconds
#
# Revision: 0
# Processed by: cddbd v1.4PL0 Copyright (c) Steve Scherf et al.
# Submitted via: CDex 1.51
#
DISCID=e3096010
DTITLE=Patsy Cline - Ultimate Legends
DYEAR=1999
DGENRE=Country
TTITLE0=Walking After Midnight
TTITLE1=Three Cigarettes (In An Ashtray)
TTITLE2=Let The Teardrops Fall
TTITLE3=I've Loved And Lost Again
TTITLE4=Never No More
TTITLE5=Just Out Of Reach (Of My Two Arms)
TTITLE6=Hidin' Out
TTITLE7=Too Many Secrets
TTITLE8=Hungry For Love
TTITLE9=I Can't Forget You
TTITLE10=Pick Me Up On Your Way Down
TTITLE11=Fingerprints
TTITLE12=If I Could See The World
TTITLE13=Stop The World (And Let Me Off)
TTITLE14=Today, Tomorrow, And Forever
TTITLE15=I Cried All The Way To The Altar
EXTD=YEAR: 1999
EXTT0=
EXTT1=
EXTT2=
EXTT3=
EXTT4=
EXTT5=
EXTT6=
EXTT7=
EXTT8=
EXTT9=
EXTT10=
EXTT11=
EXTT12=
EXTT13=
EXTT14=
EXTT15=
PLAYORDER=
